<svg width="997" height="17" viewBox="0 0 997 17" fill="none" xmlns="http://www.w3.org/2000/svg">
<path d="M596.443 8.31232H792.391" stroke="#F9F8ED" stroke-miterlimit="10"/>
<path d="M792.99 8.31232H988.938" stroke="#F9F8ED" stroke-miterlimit="10"/>
<path d="M8.57812 8.31232H400.496" stroke="#F9F8ED" stroke-miterlimit="10"/>
<path d="M8.57787 16.0475C12.8461 16.0475 16.3061 12.5843 16.3061 8.31221C16.3061 4.04014 12.8461 0.576935 8.57787 0.576935C4.30967 0.576935 0.849609 4.04014 0.849609 8.31221C0.849609 12.5843 4.30967 16.0475 8.57787 16.0475Z" fill="#F9F8ED"/>
<path d="M400.496 16.0473C404.764 16.0473 408.224 12.5841 408.224 8.312C408.224 4.03992 404.764 0.576721 400.496 0.576721C396.228 0.576721 392.768 4.03992 392.768 8.312C392.768 12.5841 396.228 16.0473 400.496 16.0473Z" fill="#3E3A39"/>
<path d="M596.443 16.0473C600.711 16.0473 604.171 12.5841 604.171 8.312C604.171 4.03992 600.711 0.576721 596.443 0.576721C592.175 0.576721 588.715 4.03992 588.715 8.312C588.715 12.5841 592.175 16.0473 596.443 16.0473Z" fill="#3E3A39"/>
<path d="M204.526 16.0473C208.794 16.0473 212.254 12.5841 212.254 8.312C212.254 4.03992 208.794 0.576721 204.526 0.576721C200.258 0.576721 196.798 4.03992 196.798 8.312C196.798 12.5841 200.258 16.0473 204.526 16.0473Z" fill="#F9F8ED"/>
<path d="M792.391 16.0473C796.66 16.0473 800.12 12.5841 800.12 8.312C800.12 4.03992 796.66 0.576721 792.391 0.576721C788.123 0.576721 784.663 4.03992 784.663 8.312C784.663 12.5841 788.123 16.0473 792.391 16.0473Z" fill="#F9F8ED"/>
<path d="M988.938 16.0473C993.206 16.0473 996.666 12.5841 996.666 8.312C996.666 4.03992 993.206 0.576721 988.938 0.576721C984.67 0.576721 981.21 4.03992 981.21 8.312C981.21 12.5841 984.67 16.0473 988.938 16.0473Z" fill="#F9F8ED"/>
<path d="M400.495 8.31232H596.443" stroke="#3E3A39" stroke-miterlimit="10"/>
</svg>
